<?xml version="1.0" encoding="utf-8" standalone="no"?>
<!DOCTYPE svg PUBLIC "-//W3C//DTD SVG 1.1//EN"
  "http://www.w3.org/Graphics/SVG/1.1/DTD/svg11.dtd">
<svg xmlns:xlink="http://www.w3.org/1999/xlink" width="1144.8pt" height="618.52pt" viewBox="0 0 1144.8 618.52" xmlns="http://www.w3.org/2000/svg" version="1.1">
 <metadata>
  <rdf:RDF xmlns:dc="http://purl.org/dc/elements/1.1/" xmlns:cc="http://creativecommons.org/ns#" xmlns:rdf="http://www.w3.org/1999/02/22-rdf-syntax-ns#">
   <cc:Work>
    <dc:type rdf:resource="http://purl.org/dc/dcmitype/StillImage"/>
    <dc:date>2026-01-05T15:01:32.826548</dc:date>
    <dc:format>image/svg+xml</dc:format>
    <dc:creator>
     <cc:Agent>
      <dc:title>Matplotlib v3.10.8, https://matplotlib.org/</dc:title>
     </cc:Agent>
    </dc:creator>
   </cc:Work>
  </rdf:RDF>
 </metadata>
 <defs>
  <style type="text/css">*{stroke-linejoin: round; stroke-linecap: butt}</style>
 </defs>
 <g id="figure_1">
  <g id="patch_1">
   <path d="M 0 618.52 
L 1144.8 618.52 
L 1144.8 0 
L 0 0 
z
" style="fill: #ffffff"/>
  </g>
  <g id="axes_1">
   <g id="patch_2">
    <path d="M 92.13408 361.39392 
L 129.24192 361.39392 
Q 136.63392 361.39392 136.63392 354.00192 
L 136.63392 331.67808 
Q 136.63392 324.28608 129.24192 324.28608 
L 92.13408 324.28608 
Q 84.74208 324.28608 84.74208 331.67808 
L 84.74208 354.00192 
Q 84.74208 361.39392 92.13408 361.39392 
z
" clip-path="url(#p43ffbe97ff)" style="fill: #ffeb3b; stroke: #333333; stroke-width: 1.5; stroke-linejoin: miter"/>
   </g>
   <g id="patch_3">
    <path d="M 254.75808 361.39392 
L 291.86592 361.39392 
Q 299.25792 361.39392 299.25792 354.00192 
L 299.25792 331.67808 
Q 299.25792 324.28608 291.86592 324.28608 
L 254.75808 324.28608 
Q 247.36608 324.28608 247.36608 331.67808 
L 247.36608 354.00192 
Q 247.36608 361.39392 254.75808 361.39392 
z
" clip-path="url(#p43ffbe97ff)" style="fill: #ffeb3b; stroke: #333333; stroke-width: 1.5; stroke-linejoin: miter"/>
   </g>
   <g id="patch_4">
    <path d="M 81.12 461.112 
L 140.256 461.112 
L 140.256 431.544 
L 81.12 431.544 
z
" clip-path="url(#p43ffbe97ff)" style="fill: #ffffff; stroke: #333333; stroke-width: 1.5; stroke-linejoin: miter"/>
   </g>
   <g id="patch_5">
    <path d="M 251.136 486.984 
L 295.488 486.984 
L 295.488 427.848 
L 251.136 427.848 
z
" clip-path="url(#p43ffbe97ff)" style="fill: #ffffff; stroke: #333333; stroke-width: 1.5; stroke-linejoin: miter"/>
   </g>
   <g id="patch_6">
    <path d="M 262.224 427.848 
L 284.4 427.848 
L 284.4 416.76 
L 262.224 416.76 
z
" clip-path="url(#p43ffbe97ff)" style="fill: #ffffff; stroke: #333333; stroke-width: 1.5; stroke-linejoin: miter"/>
   </g>
   <g id="patch_7">
    <path d="M 258.528 479.592 
L 288.096 479.592 
L 288.096 466.656 
L 258.528 466.656 
z
" clip-path="url(#p43ffbe97ff)" style="fill: #999999; fill-opacity: 0.8"/>
   </g>
   <g id="patch_8">
    <path d="M 258.528 462.96 
L 288.096 462.96 
L 288.096 450.024 
L 258.528 450.024 
z
" clip-path="url(#p43ffbe97ff)" style="fill: #999999; fill-opacity: 0.6"/>
   </g>
   <g id="patch_9">
    <path d="M 258.528 446.328 
L 288.096 446.328 
L 288.096 433.392 
L 258.528 433.392 
z
" clip-path="url(#p43ffbe97ff)" style="fill: #999999; fill-opacity: 0.4"/>
   </g>
   <g id="patch_10">
    <path d="M 55.17408 498.14592 
L 166.20192 498.14592 
Q 177.28992 498.14592 177.28992 487.05792 
L 177.28992 279.93408 
Q 177.28992 268.84608 166.20192 268.84608 
L 55.17408 268.84608 
Q 44.08608 268.84608 44.08608 279.93408 
L 44.08608 487.05792 
Q 44.08608 498.14592 55.17408 498.14592 
L 55.17408 498.14592 
z
" clip-path="url(#p43ffbe97ff)" style="fill: none; stroke-dasharray: 7.4,3.2; stroke-dashoffset: 0; stroke: #3f51b5; stroke-width: 2; stroke-linejoin: miter"/>
   </g>
   <g id="patch_11">
    <path d="M 217.79808 498.14592 
L 328.82592 498.14592 
Q 339.91392 498.14592 339.91392 487.05792 
L 339.91392 279.93408 
Q 339.91392 268.84608 328.82592 268.84608 
L 217.79808 268.84608 
Q 206.71008 268.84608 206.71008 279.93408 
L 206.71008 487.05792 
Q 206.71008 498.14592 217.79808 498.14592 
L 217.79808 498.14592 
z
" clip-path="url(#p43ffbe97ff)" style="fill: none; stroke-dasharray: 7.4,3.2; stroke-dashoffset: 0; stroke: #3f51b5; stroke-width: 2; stroke-linejoin: miter"/>
   </g>
   <g id="line2d_1">
    <path d="M 177.216 231.96 
L 184.608 172.824 
" clip-path="url(#p43ffbe97ff)" style="fill: none; stroke: #333333; stroke-width: 1.5; stroke-linecap: square"/>
   </g>
   <g id="line2d_2">
    <path d="M 206.784 231.96 
L 199.392 172.824 
" clip-path="url(#p43ffbe97ff)" style="fill: none; stroke: #333333; stroke-width: 1.5; stroke-linecap: square"/>
   </g>
   <g id="line2d_3">
    <path d="M 184.608 172.824 
L 199.392 172.824 
" clip-path="url(#p43ffbe97ff)" style="fill: none; stroke: #333333; stroke-width: 1.5; stroke-linecap: square"/>
   </g>
   <g id="line2d_4">
    <path d="M 180.912 202.392 
L 203.088 202.392 
" clip-path="url(#p43ffbe97ff)" style="fill: none; stroke: #333333; stroke-width: 1.05; stroke-linecap: square"/>
   </g>
   <g id="line2d_5">
    <path d="M 182.76 187.608 
L 201.24 187.608 
" clip-path="url(#p43ffbe97ff)" style="fill: none; stroke: #333333; stroke-width: 1.05; stroke-linecap: square"/>
   </g>
   <g id="line2d_6">
    <path d="M 162.432 180.216 
L 221.568 180.216 
" clip-path="url(#p43ffbe97ff)" style="fill: none; stroke: #333333; stroke-width: 1.8; stroke-linecap: square"/>
   </g>
   <g id="line2d_7">
    <path d="M 169.824 195 
L 214.176 195 
" clip-path="url(#p43ffbe97ff)" style="fill: none; stroke: #333333; stroke-width: 1.5; stroke-linecap: square"/>
   </g>
   <g id="line2d_8">
    <path d="M 162.432 180.216 
L 155.04 183.912 
" clip-path="url(#p43ffbe97ff)" style="fill: none; stroke: #333333; stroke-width: 1.2; stroke-linecap: square"/>
   </g>
   <g id="line2d_9">
    <path d="M 221.568 180.216 
L 228.96 183.912 
" clip-path="url(#p43ffbe97ff)" style="fill: none; stroke: #333333; stroke-width: 1.2; stroke-linecap: square"/>
   </g>
   <g id="line2d_10">
    <path d="M 169.824 195 
L 162.432 198.696 
" clip-path="url(#p43ffbe97ff)" style="fill: none; stroke: #333333; stroke-width: 1.2; stroke-linecap: square"/>
   </g>
   <g id="line2d_11">
    <path d="M 214.176 195 
L 221.568 198.696 
" clip-path="url(#p43ffbe97ff)" style="fill: none; stroke: #333333; stroke-width: 1.2; stroke-linecap: square"/>
   </g>
   <g id="line2d_12">
    <defs>
     <path id="m9de234e7a1" d="M 0 3 
C 0.795609 3 1.55874 2.683901 2.12132 2.12132 
C 2.683901 1.55874 3 0.795609 3 0 
C 3 -0.795609 2.683901 -1.55874 2.12132 -2.12132 
C 1.55874 -2.683901 0.795609 -3 0 -3 
C -0.795609 -3 -1.55874 -2.683901 -2.12132 -2.12132 
C -2.683901 -1.55874 -3 -0.795609 -3 0 
C -3 0.795609 -2.683901 1.55874 -2.12132 2.12132 
C -1.55874 2.683901 -0.795609 3 0 3 
z
" style="stroke: #000000"/>
    </defs>
    <g clip-path="url(#p43ffbe97ff)">
     <use xlink:href="#m9de234e7a1" x="192" y="250.44" style="stroke: #000000"/>
    </g>
   </g>
   <g id="line2d_13">
    <path d="M 192 231.96 
L 192 250.44 
" clip-path="url(#p43ffbe97ff)" style="fill: none; stroke: #1a1a1a; stroke-width: 2; stroke-linecap: square"/>
   </g>
   <g id="line2d_14">
    <path d="M 192 250.44 
L 110.688 250.44 
" clip-path="url(#p43ffbe97ff)" style="fill: none; stroke: #1a1a1a; stroke-width: 2; stroke-linecap: square"/>
   </g>
   <g id="line2d_15">
    <path d="M 192 250.44 
L 273.312 250.44 
" clip-path="url(#p43ffbe97ff)" style="fill: none; stroke: #1a1a1a; stroke-width: 2; stroke-linecap: square"/>
   </g>
   <g id="line2d_16">
    <path d="M 110.688 250.44 
L 110.688 316.968 
" clip-path="url(#p43ffbe97ff)" style="fill: none; stroke: #1a1a1a; stroke-width: 2; stroke-linecap: square"/>
   </g>
   <g id="line2d_17">
    <path d="M 273.312 250.44 
L 273.312 316.968 
" clip-path="url(#p43ffbe97ff)" style="fill: none; stroke: #1a1a1a; stroke-width: 2; stroke-linecap: square"/>
   </g>
   <g id="line2d_18">
    <path d="M 110.688 368.712 
L 110.688 416.76 
" clip-path="url(#p43ffbe97ff)" style="fill: none; stroke: #e91e63; stroke-width: 2; stroke-linecap: square"/>
   </g>
   <g id="line2d_19">
    <path d="M 273.312 368.712 
L 273.312 416.76 
" clip-path="url(#p43ffbe97ff)" style="fill: none; stroke: #e91e63; stroke-width: 2; stroke-linecap: square"/>
   </g>
   <g id="line2d_20">
    <path d="M 100.7088 461.112 
L 100.7088 431.544 
" clip-path="url(#p43ffbe97ff)" style="fill: none; stroke: #333333; stroke-width: 0.5; stroke-linecap: square"/>
   </g>
   <g id="line2d_21">
    <path d="M 120.2976 461.112 
L 120.2976 431.544 
" clip-path="url(#p43ffbe97ff)" style="fill: none; stroke: #333333; stroke-width: 0.5; stroke-linecap: square"/>
   </g>
   <g id="line2d_22">
    <path d="M 81.12 446.328 
L 140.256 446.328 
" clip-path="url(#p43ffbe97ff)" style="fill: none; stroke: #333333; stroke-width: 0.5; stroke-linecap: square"/>
   </g>
   <g id="line2d_23">
    <path d="M 110.688 461.112 
L 110.688 483.288 
" clip-path="url(#p43ffbe97ff)" style="fill: none; stroke: #333333; stroke-width: 1.5; stroke-linecap: square"/>
   </g>
   <g id="line2d_24">
    <path d="M 92.208 483.288 
L 129.168 483.288 
" clip-path="url(#p43ffbe97ff)" style="fill: none; stroke: #333333; stroke-width: 1.5; stroke-linecap: square"/>
   </g>
   <g id="text_1">
    <!-- DUID 1 -->
    <g transform="translate(91.246594 516.552) scale(0.1 -0.1)">
     <defs>
      <path id="DejaVuSans-Bold-44" d="M 1791 3756 
L 1791 909 
L 2222 909 
Q 2959 909 3348 1275 
Q 3738 1641 3738 2338 
Q 3738 3031 3350 3393 
Q 2963 3756 2222 3756 
L 1791 3756 
z
M 588 4666 
L 1856 4666 
Q 2919 4666 3439 4514 
Q 3959 4363 4331 4000 
Q 4659 3684 4818 3271 
Q 4978 2859 4978 2338 
Q 4978 1809 4818 1395 
Q 4659 981 4331 666 
Q 3956 303 3431 151 
Q 2906 0 1856 0 
L 588 0 
L 588 4666 
z
" transform="scale(0.015625)"/>
      <path id="DejaVuSans-Bold-55" d="M 588 4666 
L 1791 4666 
L 1791 1869 
Q 1791 1291 1980 1042 
Q 2169 794 2597 794 
Q 3028 794 3217 1042 
Q 3406 1291 3406 1869 
L 3406 4666 
L 4609 4666 
L 4609 1869 
Q 4609 878 4112 393 
Q 3616 -91 2597 -91 
Q 1581 -91 1084 393 
Q 588 878 588 1869 
L 588 4666 
z
" transform="scale(0.015625)"/>
      <path id="DejaVuSans-Bold-49" d="M 588 4666 
L 1791 4666 
L 1791 0 
L 588 0 
L 588 4666 
z
" transform="scale(0.015625)"/>
      <path id="DejaVuSans-Bold-20" transform="scale(0.015625)"/>
      <path id="DejaVuSans-Bold-31" d="M 750 831 
L 1813 831 
L 1813 3847 
L 722 3622 
L 722 4441 
L 1806 4666 
L 2950 4666 
L 2950 831 
L 4013 831 
L 4013 0 
L 750 0 
L 750 831 
z
" transform="scale(0.015625)"/>
     </defs>
     <use xlink:href="#DejaVuSans-Bold-44"/>
     <use xlink:href="#DejaVuSans-Bold-55" transform="translate(83.007812 0)"/>
     <use xlink:href="#DejaVuSans-Bold-49" transform="translate(164.208984 0)"/>
     <use xlink:href="#DejaVuSans-Bold-44" transform="translate(201.416016 0)"/>
     <use xlink:href="#DejaVuSans-Bold-20" transform="translate(284.423828 0)"/>
     <use xlink:href="#DejaVuSans-Bold-31" transform="translate(319.238281 0)"/>
    </g>
   </g>
   <g id="text_2">
    <!-- DUID 2 -->
    <g transform="translate(253.870594 516.552) scale(0.1 -0.1)">
     <defs>
      <path id="DejaVuSans-Bold-32" d="M 1844 884 
L 3897 884 
L 3897 0 
L 506 0 
L 506 884 
L 2209 2388 
Q 2438 2594 2547 2791 
Q 2656 2988 2656 3200 
Q 2656 3528 2436 3728 
Q 2216 3928 1850 3928 
Q 1569 3928 1234 3808 
Q 900 3688 519 3450 
L 519 4475 
Q 925 4609 1322 4679 
Q 1719 4750 2100 4750 
Q 2938 4750 3402 4381 
Q 3866 4013 3866 3353 
Q 3866 2972 3669 2642 
Q 3472 2313 2841 1759 
L 1844 884 
z
" transform="scale(0.015625)"/>
     </defs>
     <use xlink:href="#DejaVuSans-Bold-44"/>
     <use xlink:href="#DejaVuSans-Bold-55" transform="translate(83.007812 0)"/>
     <use xlink:href="#DejaVuSans-Bold-49" transform="translate(164.208984 0)"/>
     <use xlink:href="#DejaVuSans-Bold-44" transform="translate(201.416016 0)"/>
     <use xlink:href="#DejaVuSans-Bold-20" transform="translate(284.423828 0)"/>
     <use xlink:href="#DejaVuSans-Bold-32" transform="translate(319.238281 0)"/>
    </g>
   </g>
   <g id="text_3">
    <!-- Grid connection -->
    <g style="fill: #666666" transform="translate(14.592 197.483437) scale(0.09 -0.09)">
     <defs>
      <path id="DejaVuSans-47" d="M 3809 666 
L 3809 1919 
L 2778 1919 
L 2778 2438 
L 4434 2438 
L 4434 434 
Q 4069 175 3628 42 
Q 3188 -91 2688 -91 
Q 1594 -91 976 548 
Q 359 1188 359 2328 
Q 359 3472 976 4111 
Q 1594 4750 2688 4750 
Q 3144 4750 3555 4637 
Q 3966 4525 4313 4306 
L 4313 3634 
Q 3963 3931 3569 4081 
Q 3175 4231 2741 4231 
Q 1884 4231 1454 3753 
Q 1025 3275 1025 2328 
Q 1025 1384 1454 906 
Q 1884 428 2741 428 
Q 3075 428 3337 486 
Q 3600 544 3809 666 
z
" transform="scale(0.015625)"/>
      <path id="DejaVuSans-72" d="M 2631 2963 
Q 2534 3019 2420 3045 
Q 2306 3072 2169 3072 
Q 1681 3072 1420 2755 
Q 1159 2438 1159 1844 
L 1159 0 
L 581 0 
L 581 3500 
L 1159 3500 
L 1159 2956 
Q 1341 3275 1631 3429 
Q 1922 3584 2338 3584 
Q 2397 3584 2469 3576 
Q 2541 3569 2628 3553 
L 2631 2963 
z
" transform="scale(0.015625)"/>
      <path id="DejaVuSans-69" d="M 603 3500 
L 1178 3500 
L 1178 0 
L 603 0 
L 603 3500 
z
M 603 4863 
L 1178 4863 
L 1178 4134 
L 603 4134 
L 603 4863 
z
" transform="scale(0.015625)"/>
      <path id="DejaVuSans-64" d="M 2906 2969 
L 2906 4863 
L 3481 4863 
L 3481 0 
L 2906 0 
L 2906 525 
Q 2725 213 2448 61 
Q 2172 -91 1784 -91 
Q 1150 -91 751 415 
Q 353 922 353 1747 
Q 353 2572 751 3078 
Q 1150 3584 1784 3584 
Q 2172 3584 2448 3432 
Q 2725 3281 2906 2969 
z
M 947 1747 
Q 947 1113 1208 752 
Q 1469 391 1925 391 
Q 2381 391 2643 752 
Q 2906 1113 2906 1747 
Q 2906 2381 2643 2742 
Q 2381 3103 1925 3103 
Q 1469 3103 1208 2742 
Q 947 2381 947 1747 
z
" transform="scale(0.015625)"/>
      <path id="DejaVuSans-20" transform="scale(0.015625)"/>
      <path id="DejaVuSans-63" d="M 3122 3366 
L 3122 2828 
Q 2878 2963 2633 3030 
Q 2388 3097 2138 3097 
Q 1578 3097 1268 2742 
Q 959 2388 959 1747 
Q 959 1106 1268 751 
Q 1578 397 2138 397 
Q 2388 397 2633 464 
Q 2878 531 3122 666 
L 3122 134 
Q 2881 22 2623 -34 
Q 2366 -91 2075 -91 
Q 1284 -91 818 406 
Q 353 903 353 1747 
Q 353 2603 823 3093 
Q 1294 3584 2113 3584 
Q 2378 3584 2631 3529 
Q 2884 3475 3122 3366 
z
" transform="scale(0.015625)"/>
      <path id="DejaVuSans-6f" d="M 1959 3097 
Q 1497 3097 1228 2736 
Q 959 2375 959 1747 
Q 959 1119 1226 758 
Q 1494 397 1959 397 
Q 2419 397 2687 759 
Q 2956 1122 2956 1747 
Q 2956 2369 2687 2733 
Q 2419 3097 1959 3097 
z
M 1959 3584 
Q 2709 3584 3137 3096 
Q 3566 2609 3566 1747 
Q 3566 888 3137 398 
Q 2709 -91 1959 -91 
Q 1206 -91 779 398 
Q 353 888 353 1747 
Q 353 2609 779 3096 
Q 1206 3584 1959 3584 
z
" transform="scale(0.015625)"/>
      <path id="DejaVuSans-6e" d="M 3513 2113 
L 3513 0 
L 2938 0 
L 2938 2094 
Q 2938 2591 2744 2837 
Q 2550 3084 2163 3084 
Q 1697 3084 1428 2787 
Q 1159 2491 1159 1978 
L 1159 0 
L 581 0 
L 581 3500 
L 1159 3500 
L 1159 2956 
Q 1366 3272 1645 3428 
Q 1925 3584 2291 3584 
Q 2894 3584 3203 3211 
Q 3513 2838 3513 2113 
z
" transform="scale(0.015625)"/>
      <path id="DejaVuSans-65" d="M 3597 1894 
L 3597 1613 
L 953 1613 
Q 991 1019 1311 708 
Q 1631 397 2203 397 
Q 2534 397 2845 478 
Q 3156 559 3463 722 
L 3463 178 
Q 3153 47 2828 -22 
Q 2503 -91 2169 -91 
Q 1331 -91 842 396 
Q 353 884 353 1716 
Q 353 2575 817 3079 
Q 1281 3584 2069 3584 
Q 2775 3584 3186 3129 
Q 3597 2675 3597 1894 
z
M 3022 2063 
Q 3016 2534 2758 2815 
Q 2500 3097 2075 3097 
Q 1594 3097 1305 2825 
Q 1016 2553 972 2059 
L 3022 2063 
z
" transform="scale(0.015625)"/>
      <path id="DejaVuSans-74" d="M 1172 4494 
L 1172 3500 
L 2356 3500 
L 2356 3053 
L 1172 3053 
L 1172 1153 
Q 1172 725 1289 603 
Q 1406 481 1766 481 
L 2356 481 
L 2356 0 
L 1766 0 
Q 1100 0 847 248 
Q 594 497 594 1153 
L 594 3053 
L 172 3053 
L 172 3500 
L 594 3500 
L 594 4494 
L 1172 4494 
z
" transform="scale(0.015625)"/>
     </defs>
     <use xlink:href="#DejaVuSans-47"/>
     <use xlink:href="#DejaVuSans-72" transform="translate(77.490234 0)"/>
     <use xlink:href="#DejaVuSans-69" transform="translate(118.603516 0)"/>
     <use xlink:href="#DejaVuSans-64" transform="translate(146.386719 0)"/>
     <use xlink:href="#DejaVuSans-20" transform="translate(209.863281 0)"/>
     <use xlink:href="#DejaVuSans-63" transform="translate(241.650391 0)"/>
     <use xlink:href="#DejaVuSans-6f" transform="translate(296.630859 0)"/>
     <use xlink:href="#DejaVuSans-6e" transform="translate(357.8125 0)"/>
     <use xlink:href="#DejaVuSans-6e" transform="translate(421.191406 0)"/>
     <use xlink:href="#DejaVuSans-65" transform="translate(484.570312 0)"/>
     <use xlink:href="#DejaVuSans-63" transform="translate(546.09375 0)"/>
     <use xlink:href="#DejaVuSans-74" transform="translate(601.074219 0)"/>
     <use xlink:href="#DejaVuSans-69" transform="translate(640.283203 0)"/>
     <use xlink:href="#DejaVuSans-6f" transform="translate(668.066406 0)"/>
     <use xlink:href="#DejaVuSans-6e" transform="translate(729.248047 0)"/>
    </g>
   </g>
   <g id="text_4">
    <!-- Inverter -->
    <g style="fill: #666666" transform="translate(14.592 345.323437) scale(0.09 -0.09)">
     <defs>
      <path id="DejaVuSans-49" d="M 628 4666 
L 1259 4666 
L 1259 0 
L 628 0 
L 628 4666 
z
" transform="scale(0.015625)"/>
      <path id="DejaVuSans-76" d="M 191 3500 
L 800 3500 
L 1894 563 
L 2988 3500 
L 3597 3500 
L 2284 0 
L 1503 0 
L 191 3500 
z
" transform="scale(0.015625)"/>
     </defs>
     <use xlink:href="#DejaVuSans-49"/>
     <use xlink:href="#DejaVuSans-6e" transform="translate(29.492188 0)"/>
     <use xlink:href="#DejaVuSans-76" transform="translate(92.871094 0)"/>
     <use xlink:href="#DejaVuSans-65" transform="translate(152.050781 0)"/>
     <use xlink:href="#DejaVuSans-72" transform="translate(213.574219 0)"/>
     <use xlink:href="#DejaVuSans-74" transform="translate(254.6875 0)"/>
     <use xlink:href="#DejaVuSans-65" transform="translate(293.896484 0)"/>
     <use xlink:href="#DejaVuSans-72" transform="translate(355.419922 0)"/>
    </g>
   </g>
   <g id="text_5">
    <!-- Solar/battery -->
    <g style="fill: #666666" transform="translate(14.592 456.203437) scale(0.09 -0.09)">
     <defs>
      <path id="DejaVuSans-53" d="M 3425 4513 
L 3425 3897 
Q 3066 4069 2747 4153 
Q 2428 4238 2131 4238 
Q 1616 4238 1336 4038 
Q 1056 3838 1056 3469 
Q 1056 3159 1242 3001 
Q 1428 2844 1947 2747 
L 2328 2669 
Q 3034 2534 3370 2195 
Q 3706 1856 3706 1288 
Q 3706 609 3251 259 
Q 2797 -91 1919 -91 
Q 1588 -91 1214 -16 
Q 841 59 441 206 
L 441 856 
Q 825 641 1194 531 
Q 1563 422 1919 422 
Q 2459 422 2753 634 
Q 3047 847 3047 1241 
Q 3047 1584 2836 1778 
Q 2625 1972 2144 2069 
L 1759 2144 
Q 1053 2284 737 2584 
Q 422 2884 422 3419 
Q 422 4038 858 4394 
Q 1294 4750 2059 4750 
Q 2388 4750 2728 4690 
Q 3069 4631 3425 4513 
z
" transform="scale(0.015625)"/>
      <path id="DejaVuSans-6c" d="M 603 4863 
L 1178 4863 
L 1178 0 
L 603 0 
L 603 4863 
z
" transform="scale(0.015625)"/>
      <path id="DejaVuSans-61" d="M 2194 1759 
Q 1497 1759 1228 1600 
Q 959 1441 959 1056 
Q 959 750 1161 570 
Q 1363 391 1709 391 
Q 2188 391 2477 730 
Q 2766 1069 2766 1631 
L 2766 1759 
L 2194 1759 
z
M 3341 1997 
L 3341 0 
L 2766 0 
L 2766 531 
Q 2569 213 2275 61 
Q 1981 -91 1556 -91 
Q 1019 -91 701 211 
Q 384 513 384 1019 
Q 384 1609 779 1909 
Q 1175 2209 1959 2209 
L 2766 2209 
L 2766 2266 
Q 2766 2663 2505 2880 
Q 2244 3097 1772 3097 
Q 1472 3097 1187 3025 
Q 903 2953 641 2809 
L 641 3341 
Q 956 3463 1253 3523 
Q 1550 3584 1831 3584 
Q 2591 3584 2966 3190 
Q 3341 2797 3341 1997 
z
" transform="scale(0.015625)"/>
      <path id="DejaVuSans-2f" d="M 1625 4666 
L 2156 4666 
L 531 -594 
L 0 -594 
L 1625 4666 
z
" transform="scale(0.015625)"/>
      <path id="DejaVuSans-62" d="M 3116 1747 
Q 3116 2381 2855 2742 
Q 2594 3103 2138 3103 
Q 1681 3103 1420 2742 
Q 1159 2381 1159 1747 
Q 1159 1113 1420 752 
Q 1681 391 2138 391 
Q 2594 391 2855 752 
Q 3116 1113 3116 1747 
z
M 1159 2969 
Q 1341 3281 1617 3432 
Q 1894 3584 2278 3584 
Q 2916 3584 3314 3078 
Q 3713 2572 3713 1747 
Q 3713 922 3314 415 
Q 2916 -91 2278 -91 
Q 1894 -91 1617 61 
Q 1341 213 1159 525 
L 1159 0 
L 581 0 
L 581 4863 
L 1159 4863 
L 1159 2969 
z
" transform="scale(0.015625)"/>
      <path id="DejaVuSans-79" d="M 2059 -325 
Q 1816 -950 1584 -1140 
Q 1353 -1331 966 -1331 
L 506 -1331 
L 506 -850 
L 844 -850 
Q 1081 -850 1212 -737 
Q 1344 -625 1503 -206 
L 1606 56 
L 191 3500 
L 800 3500 
L 1894 763 
L 2988 3500 
L 3597 3500 
L 2059 -325 
z
" transform="scale(0.015625)"/>
     </defs>
     <use xlink:href="#DejaVuSans-53"/>
     <use xlink:href="#DejaVuSans-6f" transform="translate(63.476562 0)"/>
     <use xlink:href="#DejaVuSans-6c" transform="translate(124.658203 0)"/>
     <use xlink:href="#DejaVuSans-61" transform="translate(152.441406 0)"/>
     <use xlink:href="#DejaVuSans-72" transform="translate(213.720703 0)"/>
     <use xlink:href="#DejaVuSans-2f" transform="translate(254.833984 0)"/>
     <use xlink:href="#DejaVuSans-62" transform="translate(288.525391 0)"/>
     <use xlink:href="#DejaVuSans-61" transform="translate(352.001953 0)"/>
     <use xlink:href="#DejaVuSans-74" transform="translate(413.28125 0)"/>
     <use xlink:href="#DejaVuSans-74" transform="translate(452.490234 0)"/>
     <use xlink:href="#DejaVuSans-65" transform="translate(491.699219 0)"/>
     <use xlink:href="#DejaVuSans-72" transform="translate(553.222656 0)"/>
     <use xlink:href="#DejaVuSans-79" transform="translate(594.335938 0)"/>
    </g>
   </g>
   <g id="text_6">
    <!-- Non-hybrid -->
    <g transform="translate(151.166797 124.56) scale(0.13 -0.13)">
     <defs>
      <path id="DejaVuSans-Bold-4e" d="M 588 4666 
L 1931 4666 
L 3628 1466 
L 3628 4666 
L 4769 4666 
L 4769 0 
L 3425 0 
L 1728 3200 
L 1728 0 
L 588 0 
L 588 4666 
z
" transform="scale(0.015625)"/>
      <path id="DejaVuSans-Bold-6f" d="M 2203 2784 
Q 1831 2784 1636 2517 
Q 1441 2250 1441 1747 
Q 1441 1244 1636 976 
Q 1831 709 2203 709 
Q 2569 709 2762 976 
Q 2956 1244 2956 1747 
Q 2956 2250 2762 2517 
Q 2569 2784 2203 2784 
z
M 2203 3584 
Q 3106 3584 3614 3096 
Q 4122 2609 4122 1747 
Q 4122 884 3614 396 
Q 3106 -91 2203 -91 
Q 1297 -91 786 396 
Q 275 884 275 1747 
Q 275 2609 786 3096 
Q 1297 3584 2203 3584 
z
" transform="scale(0.015625)"/>
      <path id="DejaVuSans-Bold-6e" d="M 4056 2131 
L 4056 0 
L 2931 0 
L 2931 347 
L 2931 1631 
Q 2931 2084 2911 2256 
Q 2891 2428 2841 2509 
Q 2775 2619 2662 2680 
Q 2550 2741 2406 2741 
Q 2056 2741 1856 2470 
Q 1656 2200 1656 1722 
L 1656 0 
L 538 0 
L 538 3500 
L 1656 3500 
L 1656 2988 
Q 1909 3294 2193 3439 
Q 2478 3584 2822 3584 
Q 3428 3584 3742 3212 
Q 4056 2841 4056 2131 
z
" transform="scale(0.015625)"/>
      <path id="DejaVuSans-Bold-2d" d="M 347 2297 
L 2309 2297 
L 2309 1388 
L 347 1388 
L 347 2297 
z
" transform="scale(0.015625)"/>
      <path id="DejaVuSans-Bold-68" d="M 4056 2131 
L 4056 0 
L 2931 0 
L 2931 347 
L 2931 1625 
Q 2931 2084 2911 2256 
Q 2891 2428 2841 2509 
Q 2775 2619 2662 2680 
Q 2550 2741 2406 2741 
Q 2056 2741 1856 2470 
Q 1656 2200 1656 1722 
L 1656 0 
L 538 0 
L 538 4863 
L 1656 4863 
L 1656 2988 
Q 1909 3294 2193 3439 
Q 2478 3584 2822 3584 
Q 3428 3584 3742 3212 
Q 4056 2841 4056 2131 
z
" transform="scale(0.015625)"/>
      <path id="DejaVuSans-Bold-79" d="M 78 3500 
L 1197 3500 
L 2138 1125 
L 2938 3500 
L 4056 3500 
L 2584 -331 
Q 2363 -916 2067 -1148 
Q 1772 -1381 1288 -1381 
L 641 -1381 
L 641 -647 
L 991 -647 
Q 1275 -647 1404 -556 
Q 1534 -466 1606 -231 
L 1638 -134 
L 78 3500 
z
" transform="scale(0.015625)"/>
      <path id="DejaVuSans-Bold-62" d="M 2400 722 
Q 2759 722 2948 984 
Q 3138 1247 3138 1747 
Q 3138 2247 2948 2509 
Q 2759 2772 2400 2772 
Q 2041 2772 1848 2508 
Q 1656 2244 1656 1747 
Q 1656 1250 1848 986 
Q 2041 722 2400 722 
z
M 1656 2988 
Q 1888 3294 2169 3439 
Q 2450 3584 2816 3584 
Q 3463 3584 3878 3070 
Q 4294 2556 4294 1747 
Q 4294 938 3878 423 
Q 3463 -91 2816 -91 
Q 2450 -91 2169 54 
Q 1888 200 1656 506 
L 1656 0 
L 538 0 
L 538 4863 
L 1656 4863 
L 1656 2988 
z
" transform="scale(0.015625)"/>
      <path id="DejaVuSans-Bold-72" d="M 3138 2547 
Q 2991 2616 2845 2648 
Q 2700 2681 2553 2681 
Q 2122 2681 1889 2404 
Q 1656 2128 1656 1613 
L 1656 0 
L 538 0 
L 538 3500 
L 1656 3500 
L 1656 2925 
Q 1872 3269 2151 3426 
Q 2431 3584 2822 3584 
Q 2878 3584 2943 3579 
Q 3009 3575 3134 3559 
L 3138 2547 
z
" transform="scale(0.015625)"/>
      <path id="DejaVuSans-Bold-69" d="M 538 3500 
L 1656 3500 
L 1656 0 
L 538 0 
L 538 3500 
z
M 538 4863 
L 1656 4863 
L 1656 3950 
L 538 3950 
L 538 4863 
z
" transform="scale(0.015625)"/>
      <path id="DejaVuSans-Bold-64" d="M 2919 2988 
L 2919 4863 
L 4044 4863 
L 4044 0 
L 2919 0 
L 2919 506 
Q 2688 197 2409 53 
Q 2131 -91 1766 -91 
Q 1119 -91 703 423 
Q 288 938 288 1747 
Q 288 2556 703 3070 
Q 1119 3584 1766 3584 
Q 2128 3584 2408 3439 
Q 2688 3294 2919 2988 
z
M 2181 722 
Q 2541 722 2730 984 
Q 2919 1247 2919 1747 
Q 2919 2247 2730 2509 
Q 2541 2772 2181 2772 
Q 1825 2772 1636 2509 
Q 1447 2247 1447 1747 
Q 1447 1247 1636 984 
Q 1825 722 2181 722 
z
" transform="scale(0.015625)"/>
     </defs>
     <use xlink:href="#DejaVuSans-Bold-4e"/>
     <use xlink:href="#DejaVuSans-Bold-6f" transform="translate(83.691406 0)"/>
     <use xlink:href="#DejaVuSans-Bold-6e" transform="translate(152.392578 0)"/>
     <use xlink:href="#DejaVuSans-Bold-2d" transform="translate(223.583984 0)"/>
     <use xlink:href="#DejaVuSans-Bold-68" transform="translate(265.087891 0)"/>
     <use xlink:href="#DejaVuSans-Bold-79" transform="translate(336.279297 0)"/>
     <use xlink:href="#DejaVuSans-Bold-62" transform="translate(401.464844 0)"/>
     <use xlink:href="#DejaVuSans-Bold-72" transform="translate(473.046875 0)"/>
     <use xlink:href="#DejaVuSans-Bold-69" transform="translate(522.363281 0)"/>
     <use xlink:href="#DejaVuSans-Bold-64" transform="translate(556.640625 0)"/>
    </g>
   </g>
  </g>
  <g id="axes_2">
   <g id="patch_12">
    <path d="M 472.53408 361.39392 
L 509.64192 361.39392 
Q 517.03392 361.39392 517.03392 354.00192 
L 517.03392 331.67808 
Q 517.03392 324.28608 509.64192 324.28608 
L 472.53408 324.28608 
Q 465.14208 324.28608 465.14208 331.67808 
L 465.14208 354.00192 
Q 465.14208 361.39392 472.53408 361.39392 
z
" clip-path="url(#pd84ebc76dc)" style="fill: #ffeb3b; stroke: #333333; stroke-width: 1.5; stroke-linejoin: miter"/>
   </g>
   <g id="patch_13">
    <path d="M 635.15808 361.39392 
L 672.26592 361.39392 
Q 679.65792 361.39392 679.65792 354.00192 
L 679.65792 331.67808 
Q 679.65792 324.28608 672.26592 324.28608 
L 635.15808 324.28608 
Q 627.76608 324.28608 627.76608 331.67808 
L 627.76608 354.00192 
Q 627.76608 361.39392 635.15808 361.39392 
z
" clip-path="url(#pd84ebc76dc)" style="fill: #ffeb3b; stroke: #333333; stroke-width: 1.5; stroke-linejoin: miter"/>
   </g>
   <g id="patch_14">
    <path d="M 461.52 461.112 
L 520.656 461.112 
L 520.656 431.544 
L 461.52 431.544 
z
" clip-path="url(#pd84ebc76dc)" style="fill: #ffffff; stroke: #333333; stroke-width: 1.5; stroke-linejoin: miter"/>
   </g>
   <g id="patch_15">
    <path d="M 631.536 486.984 
L 675.888 486.984 
L 675.888 427.848 
L 631.536 427.848 
z
" clip-path="url(#pd84ebc76dc)" style="fill: #ffffff; stroke: #333333; stroke-width: 1.5; stroke-linejoin: miter"/>
   </g>
   <g id="patch_16">
    <path d="M 642.624 427.848 
L 664.8 427.848 
L 664.8 416.76 
L 642.624 416.76 
z
" clip-path="url(#pd84ebc76dc)" style="fill: #ffffff; stroke: #333333; stroke-width: 1.5; stroke-linejoin: miter"/>
   </g>
   <g id="patch_17">
    <path d="M 638.928 479.592 
L 668.496 479.592 
L 668.496 466.656 
L 638.928 466.656 
z
" clip-path="url(#pd84ebc76dc)" style="fill: #999999; fill-opacity: 0.8"/>
   </g>
   <g id="patch_18">
    <path d="M 638.928 462.96 
L 668.496 462.96 
L 668.496 450.024 
L 638.928 450.024 
z
" clip-path="url(#pd84ebc76dc)" style="fill: #999999; fill-opacity: 0.6"/>
   </g>
   <g id="patch_19">
    <path d="M 638.928 446.328 
L 668.496 446.328 
L 668.496 433.392 
L 638.928 433.392 
z
" clip-path="url(#pd84ebc76dc)" style="fill: #999999; fill-opacity: 0.4"/>
   </g>
   <g id="patch_20">
    <path d="M 435.57408 498.14592 
L 709.22592 498.14592 
Q 720.31392 498.14592 720.31392 487.05792 
L 720.31392 279.93408 
Q 720.31392 268.84608 709.22592 268.84608 
L 435.57408 268.84608 
Q 424.48608 268.84608 424.48608 279.93408 
L 424.48608 487.05792 
Q 424.48608 498.14592 435.57408 498.14592 
L 435.57408 498.14592 
z
" clip-path="url(#pd84ebc76dc)" style="fill: none; stroke-dasharray: 7.4,3.2; stroke-dashoffset: 0; stroke: #3f51b5; stroke-width: 2; stroke-linejoin: miter"/>
   </g>
   <g id="line2d_25">
    <path d="M 557.616 231.96 
L 565.008 172.824 
" clip-path="url(#pd84ebc76dc)" style="fill: none; stroke: #333333; stroke-width: 1.5; stroke-linecap: square"/>
   </g>
   <g id="line2d_26">
    <path d="M 587.184 231.96 
L 579.792 172.824 
" clip-path="url(#pd84ebc76dc)" style="fill: none; stroke: #333333; stroke-width: 1.5; stroke-linecap: square"/>
   </g>
   <g id="line2d_27">
    <path d="M 565.008 172.824 
L 579.792 172.824 
" clip-path="url(#pd84ebc76dc)" style="fill: none; stroke: #333333; stroke-width: 1.5; stroke-linecap: square"/>
   </g>
   <g id="line2d_28">
    <path d="M 561.312 202.392 
L 583.488 202.392 
" clip-path="url(#pd84ebc76dc)" style="fill: none; stroke: #333333; stroke-width: 1.05; stroke-linecap: square"/>
   </g>
   <g id="line2d_29">
    <path d="M 563.16 187.608 
L 581.64 187.608 
" clip-path="url(#pd84ebc76dc)" style="fill: none; stroke: #333333; stroke-width: 1.05; stroke-linecap: square"/>
   </g>
   <g id="line2d_30">
    <path d="M 542.832 180.216 
L 601.968 180.216 
" clip-path="url(#pd84ebc76dc)" style="fill: none; stroke: #333333; stroke-width: 1.8; stroke-linecap: square"/>
   </g>
   <g id="line2d_31">
    <path d="M 550.224 195 
L 594.576 195 
" clip-path="url(#pd84ebc76dc)" style="fill: none; stroke: #333333; stroke-width: 1.5; stroke-linecap: square"/>
   </g>
   <g id="line2d_32">
    <path d="M 542.832 180.216 
L 535.44 183.912 
" clip-path="url(#pd84ebc76dc)" style="fill: none; stroke: #333333; stroke-width: 1.2; stroke-linecap: square"/>
   </g>
   <g id="line2d_33">
    <path d="M 601.968 180.216 
L 609.36 183.912 
" clip-path="url(#pd84ebc76dc)" style="fill: none; stroke: #333333; stroke-width: 1.2; stroke-linecap: square"/>
   </g>
   <g id="line2d_34">
    <path d="M 550.224 195 
L 542.832 198.696 
" clip-path="url(#pd84ebc76dc)" style="fill: none; stroke: #333333; stroke-width: 1.2; stroke-linecap: square"/>
   </g>
   <g id="line2d_35">
    <path d="M 594.576 195 
L 601.968 198.696 
" clip-path="url(#pd84ebc76dc)" style="fill: none; stroke: #333333; stroke-width: 1.2; stroke-linecap: square"/>
   </g>
   <g id="line2d_36">
    <g clip-path="url(#pd84ebc76dc)">
     <use xlink:href="#m9de234e7a1" x="572.4" y="250.44" style="stroke: #000000"/>
    </g>
   </g>
   <g id="line2d_37">
    <path d="M 572.4 231.96 
L 572.4 250.44 
" clip-path="url(#pd84ebc76dc)" style="fill: none; stroke: #1a1a1a; stroke-width: 2; stroke-linecap: square"/>
   </g>
   <g id="line2d_38">
    <path d="M 572.4 250.44 
L 572.4 287.4 
" clip-path="url(#pd84ebc76dc)" style="fill: none; stroke: #1a1a1a; stroke-width: 2; stroke-linecap: square"/>
   </g>
   <g id="line2d_39">
    <path d="M 491.088 287.4 
L 653.712 287.4 
" clip-path="url(#pd84ebc76dc)" style="fill: none; stroke: #1a1a1a; stroke-width: 2; stroke-linecap: square"/>
   </g>
   <g id="line2d_40">
    <path d="M 491.088 287.4 
L 491.088 316.968 
" clip-path="url(#pd84ebc76dc)" style="fill: none; stroke: #1a1a1a; stroke-width: 2; stroke-linecap: square"/>
   </g>
   <g id="line2d_41">
    <path d="M 653.712 287.4 
L 653.712 316.968 
" clip-path="url(#pd84ebc76dc)" style="fill: none; stroke: #1a1a1a; stroke-width: 2; stroke-linecap: square"/>
   </g>
   <g id="line2d_42">
    <path d="M 491.088 368.712 
L 491.088 416.76 
" clip-path="url(#pd84ebc76dc)" style="fill: none; stroke: #e91e63; stroke-width: 2; stroke-linecap: square"/>
   </g>
   <g id="line2d_43">
    <path d="M 653.712 368.712 
L 653.712 416.76 
" clip-path="url(#pd84ebc76dc)" style="fill: none; stroke: #e91e63; stroke-width: 2; stroke-linecap: square"/>
   </g>
   <g id="line2d_44">
    <path d="M 481.1088 461.112 
L 481.1088 431.544 
" clip-path="url(#pd84ebc76dc)" style="fill: none; stroke: #333333; stroke-width: 0.5; stroke-linecap: square"/>
   </g>
   <g id="line2d_45">
    <path d="M 500.6976 461.112 
L 500.6976 431.544 
" clip-path="url(#pd84ebc76dc)" style="fill: none; stroke: #333333; stroke-width: 0.5; stroke-linecap: square"/>
   </g>
   <g id="line2d_46">
    <path d="M 461.52 446.328 
L 520.656 446.328 
" clip-path="url(#pd84ebc76dc)" style="fill: none; stroke: #333333; stroke-width: 0.5; stroke-linecap: square"/>
   </g>
   <g id="line2d_47">
    <path d="M 491.088 461.112 
L 491.088 483.288 
" clip-path="url(#pd84ebc76dc)" style="fill: none; stroke: #333333; stroke-width: 1.5; stroke-linecap: square"/>
   </g>
   <g id="line2d_48">
    <path d="M 472.608 483.288 
L 509.568 483.288 
" clip-path="url(#pd84ebc76dc)" style="fill: none; stroke: #333333; stroke-width: 1.5; stroke-linecap: square"/>
   </g>
   <g id="text_7">
    <!-- DUID 1 -->
    <g transform="translate(471.646594 516.552) scale(0.1 -0.1)">
     <use xlink:href="#DejaVuSans-Bold-44"/>
     <use xlink:href="#DejaVuSans-Bold-55" transform="translate(83.007812 0)"/>
     <use xlink:href="#DejaVuSans-Bold-49" transform="translate(164.208984 0)"/>
     <use xlink:href="#DejaVuSans-Bold-44" transform="translate(201.416016 0)"/>
     <use xlink:href="#DejaVuSans-Bold-20" transform="translate(284.423828 0)"/>
     <use xlink:href="#DejaVuSans-Bold-31" transform="translate(319.238281 0)"/>
    </g>
   </g>
   <g id="text_8">
    <!-- DUID 2 -->
    <g transform="translate(634.270594 516.552) scale(0.1 -0.1)">
     <use xlink:href="#DejaVuSans-Bold-44"/>
     <use xlink:href="#DejaVuSans-Bold-55" transform="translate(83.007812 0)"/>
     <use xlink:href="#DejaVuSans-Bold-49" transform="translate(164.208984 0)"/>
     <use xlink:href="#DejaVuSans-Bold-44" transform="translate(201.416016 0)"/>
     <use xlink:href="#DejaVuSans-Bold-20" transform="translate(284.423828 0)"/>
     <use xlink:href="#DejaVuSans-Bold-32" transform="translate(319.238281 0)"/>
    </g>
   </g>
   <g id="text_9">
    <!-- AC-coupled hybrid -->
    <g transform="translate(505.001094 124.56) scale(0.13 -0.13)">
     <defs>
      <path id="DejaVuSans-Bold-41" d="M 3419 850 
L 1538 850 
L 1241 0 
L 31 0 
L 1759 4666 
L 3194 4666 
L 4922 0 
L 3713 0 
L 3419 850 
z
M 1838 1716 
L 3116 1716 
L 2478 3572 
L 1838 1716 
z
" transform="scale(0.015625)"/>
      <path id="DejaVuSans-Bold-43" d="M 4288 256 
Q 3956 84 3597 -3 
Q 3238 -91 2847 -91 
Q 1681 -91 1000 561 
Q 319 1213 319 2328 
Q 319 3447 1000 4098 
Q 1681 4750 2847 4750 
Q 3238 4750 3597 4662 
Q 3956 4575 4288 4403 
L 4288 3438 
Q 3953 3666 3628 3772 
Q 3303 3878 2944 3878 
Q 2300 3878 1931 3465 
Q 1563 3053 1563 2328 
Q 1563 1606 1931 1193 
Q 2300 781 2944 781 
Q 3303 781 3628 887 
Q 3953 994 4288 1222 
L 4288 256 
z
" transform="scale(0.015625)"/>
      <path id="DejaVuSans-Bold-63" d="M 3366 3391 
L 3366 2478 
Q 3138 2634 2908 2709 
Q 2678 2784 2431 2784 
Q 1963 2784 1702 2511 
Q 1441 2238 1441 1747 
Q 1441 1256 1702 982 
Q 1963 709 2431 709 
Q 2694 709 2930 787 
Q 3166 866 3366 1019 
L 3366 103 
Q 3103 6 2833 -42 
Q 2563 -91 2291 -91 
Q 1344 -91 809 395 
Q 275 881 275 1747 
Q 275 2613 809 3098 
Q 1344 3584 2291 3584 
Q 2566 3584 2833 3536 
Q 3100 3488 3366 3391 
z
" transform="scale(0.015625)"/>
      <path id="DejaVuSans-Bold-75" d="M 500 1363 
L 500 3500 
L 1625 3500 
L 1625 3150 
Q 1625 2866 1622 2436 
Q 1619 2006 1619 1863 
Q 1619 1441 1641 1255 
Q 1663 1069 1716 984 
Q 1784 875 1895 815 
Q 2006 756 2150 756 
Q 2500 756 2700 1025 
Q 2900 1294 2900 1772 
L 2900 3500 
L 4019 3500 
L 4019 0 
L 2900 0 
L 2900 506 
Q 2647 200 2364 54 
Q 2081 -91 1741 -91 
Q 1134 -91 817 281 
Q 500 653 500 1363 
z
" transform="scale(0.015625)"/>
      <path id="DejaVuSans-Bold-70" d="M 1656 506 
L 1656 -1331 
L 538 -1331 
L 538 3500 
L 1656 3500 
L 1656 2988 
Q 1888 3294 2169 3439 
Q 2450 3584 2816 3584 
Q 3463 3584 3878 3070 
Q 4294 2556 4294 1747 
Q 4294 938 3878 423 
Q 3463 -91 2816 -91 
Q 2450 -91 2169 54 
Q 1888 200 1656 506 
z
M 2400 2772 
Q 2041 2772 1848 2508 
Q 1656 2244 1656 1747 
Q 1656 1250 1848 986 
Q 2041 722 2400 722 
Q 2759 722 2948 984 
Q 3138 1247 3138 1747 
Q 3138 2247 2948 2509 
Q 2759 2772 2400 2772 
z
" transform="scale(0.015625)"/>
      <path id="DejaVuSans-Bold-6c" d="M 538 4863 
L 1656 4863 
L 1656 0 
L 538 0 
L 538 4863 
z
" transform="scale(0.015625)"/>
      <path id="DejaVuSans-Bold-65" d="M 4031 1759 
L 4031 1441 
L 1416 1441 
Q 1456 1047 1700 850 
Q 1944 653 2381 653 
Q 2734 653 3104 758 
Q 3475 863 3866 1075 
L 3866 213 
Q 3469 63 3072 -14 
Q 2675 -91 2278 -91 
Q 1328 -91 801 392 
Q 275 875 275 1747 
Q 275 2603 792 3093 
Q 1309 3584 2216 3584 
Q 3041 3584 3536 3087 
Q 4031 2591 4031 1759 
z
M 2881 2131 
Q 2881 2450 2695 2645 
Q 2509 2841 2209 2841 
Q 1884 2841 1681 2658 
Q 1478 2475 1428 2131 
L 2881 2131 
z
" transform="scale(0.015625)"/>
     </defs>
     <use xlink:href="#DejaVuSans-Bold-41"/>
     <use xlink:href="#DejaVuSans-Bold-43" transform="translate(77.392578 0)"/>
     <use xlink:href="#DejaVuSans-Bold-2d" transform="translate(153.03125 0)"/>
     <use xlink:href="#DejaVuSans-Bold-63" transform="translate(194.535156 0)"/>
     <use xlink:href="#DejaVuSans-Bold-6f" transform="translate(253.8125 0)"/>
     <use xlink:href="#DejaVuSans-Bold-75" transform="translate(322.513672 0)"/>
     <use xlink:href="#DejaVuSans-Bold-70" transform="translate(393.705078 0)"/>
     <use xlink:href="#DejaVuSans-Bold-6c" transform="translate(465.287109 0)"/>
     <use xlink:href="#DejaVuSans-Bold-65" transform="translate(499.564453 0)"/>
     <use xlink:href="#DejaVuSans-Bold-64" transform="translate(567.386719 0)"/>
     <use xlink:href="#DejaVuSans-Bold-20" transform="translate(638.96875 0)"/>
     <use xlink:href="#DejaVuSans-Bold-68" transform="translate(673.783203 0)"/>
     <use xlink:href="#DejaVuSans-Bold-79" transform="translate(744.974609 0)"/>
     <use xlink:href="#DejaVuSans-Bold-62" transform="translate(810.160156 0)"/>
     <use xlink:href="#DejaVuSans-Bold-72" transform="translate(881.742188 0)"/>
     <use xlink:href="#DejaVuSans-Bold-69" transform="translate(931.058594 0)"/>
     <use xlink:href="#DejaVuSans-Bold-64" transform="translate(965.335938 0)"/>
    </g>
   </g>
  </g>
  <g id="axes_3">
   <g id="patch_21">
    <path d="M 934.24608 361.39392 
L 971.35392 361.39392 
Q 978.74592 361.39392 978.74592 354.00192 
L 978.74592 331.67808 
Q 978.74592 324.28608 971.35392 324.28608 
L 934.24608 324.28608 
Q 926.85408 324.28608 926.85408 331.67808 
L 926.85408 354.00192 
Q 926.85408 361.39392 934.24608 361.39392 
z
" clip-path="url(#p1d71c35ccf)" style="fill: #ffeb3b; stroke: #333333; stroke-width: 1.5; stroke-linejoin: miter"/>
   </g>
   <g id="patch_22">
    <path d="M 841.92 461.112 
L 901.056 461.112 
L 901.056 431.544 
L 841.92 431.544 
z
" clip-path="url(#p1d71c35ccf)" style="fill: #ffffff; stroke: #333333; stroke-width: 1.5; stroke-linejoin: miter"/>
   </g>
   <g id="patch_23">
    <path d="M 1011.936 486.984 
L 1056.288 486.984 
L 1056.288 427.848 
L 1011.936 427.848 
z
" clip-path="url(#p1d71c35ccf)" style="fill: #ffffff; stroke: #333333; stroke-width: 1.5; stroke-linejoin: miter"/>
   </g>
   <g id="patch_24">
    <path d="M 1023.024 427.848 
L 1045.2 427.848 
L 1045.2 416.76 
L 1023.024 416.76 
z
" clip-path="url(#p1d71c35ccf)" style="fill: #ffffff; stroke: #333333; stroke-width: 1.5; stroke-linejoin: miter"/>
   </g>
   <g id="patch_25">
    <path d="M 1019.328 479.592 
L 1048.896 479.592 
L 1048.896 466.656 
L 1019.328 466.656 
z
" clip-path="url(#p1d71c35ccf)" style="fill: #999999; fill-opacity: 0.8"/>
   </g>
   <g id="patch_26">
    <path d="M 1019.328 462.96 
L 1048.896 462.96 
L 1048.896 450.024 
L 1019.328 450.024 
z
" clip-path="url(#p1d71c35ccf)" style="fill: #999999; fill-opacity: 0.6"/>
   </g>
   <g id="patch_27">
    <path d="M 1019.328 446.328 
L 1048.896 446.328 
L 1048.896 433.392 
L 1019.328 433.392 
z
" clip-path="url(#p1d71c35ccf)" style="fill: #999999; fill-opacity: 0.4"/>
   </g>
   <g id="patch_28">
    <path d="M 815.97408 498.14592 
L 1089.62592 498.14592 
Q 1100.71392 498.14592 1100.71392 487.05792 
L 1100.71392 279.93408 
Q 1100.71392 268.84608 1089.62592 268.84608 
L 815.97408 268.84608 
Q 804.88608 268.84608 804.88608 279.93408 
L 804.88608 487.05792 
Q 804.88608 498.14592 815.97408 498.14592 
L 815.97408 498.14592 
z
" clip-path="url(#p1d71c35ccf)" style="fill: none; stroke-dasharray: 7.4,3.2; stroke-dashoffset: 0; stroke: #3f51b5; stroke-width: 2; stroke-linejoin: miter"/>
   </g>
   <g id="line2d_49">
    <path d="M 938.016 231.96 
L 945.408 172.824 
" clip-path="url(#p1d71c35ccf)" style="fill: none; stroke: #333333; stroke-width: 1.5; stroke-linecap: square"/>
   </g>
   <g id="line2d_50">
    <path d="M 967.584 231.96 
L 960.192 172.824 
" clip-path="url(#p1d71c35ccf)" style="fill: none; stroke: #333333; stroke-width: 1.5; stroke-linecap: square"/>
   </g>
   <g id="line2d_51">
    <path d="M 945.408 172.824 
L 960.192 172.824 
" clip-path="url(#p1d71c35ccf)" style="fill: none; stroke: #333333; stroke-width: 1.5; stroke-linecap: square"/>
   </g>
   <g id="line2d_52">
    <path d="M 941.712 202.392 
L 963.888 202.392 
" clip-path="url(#p1d71c35ccf)" style="fill: none; stroke: #333333; stroke-width: 1.05; stroke-linecap: square"/>
   </g>
   <g id="line2d_53">
    <path d="M 943.56 187.608 
L 962.04 187.608 
" clip-path="url(#p1d71c35ccf)" style="fill: none; stroke: #333333; stroke-width: 1.05; stroke-linecap: square"/>
   </g>
   <g id="line2d_54">
    <path d="M 923.232 180.216 
L 982.368 180.216 
" clip-path="url(#p1d71c35ccf)" style="fill: none; stroke: #333333; stroke-width: 1.8; stroke-linecap: square"/>
   </g>
   <g id="line2d_55">
    <path d="M 930.624 195 
L 974.976 195 
" clip-path="url(#p1d71c35ccf)" style="fill: none; stroke: #333333; stroke-width: 1.5; stroke-linecap: square"/>
   </g>
   <g id="line2d_56">
    <path d="M 923.232 180.216 
L 915.84 183.912 
" clip-path="url(#p1d71c35ccf)" style="fill: none; stroke: #333333; stroke-width: 1.2; stroke-linecap: square"/>
   </g>
   <g id="line2d_57">
    <path d="M 982.368 180.216 
L 989.76 183.912 
" clip-path="url(#p1d71c35ccf)" style="fill: none; stroke: #333333; stroke-width: 1.2; stroke-linecap: square"/>
   </g>
   <g id="line2d_58">
    <path d="M 930.624 195 
L 923.232 198.696 
" clip-path="url(#p1d71c35ccf)" style="fill: none; stroke: #333333; stroke-width: 1.2; stroke-linecap: square"/>
   </g>
   <g id="line2d_59">
    <path d="M 974.976 195 
L 982.368 198.696 
" clip-path="url(#p1d71c35ccf)" style="fill: none; stroke: #333333; stroke-width: 1.2; stroke-linecap: square"/>
   </g>
   <g id="line2d_60">
    <g clip-path="url(#p1d71c35ccf)">
     <use xlink:href="#m9de234e7a1" x="952.8" y="250.44" style="stroke: #000000"/>
    </g>
   </g>
   <g id="line2d_61">
    <path d="M 952.8 231.96 
L 952.8 250.44 
" clip-path="url(#p1d71c35ccf)" style="fill: none; stroke: #1a1a1a; stroke-width: 2; stroke-linecap: square"/>
   </g>
   <g id="line2d_62">
    <path d="M 952.8 250.44 
L 952.8 316.968 
" clip-path="url(#p1d71c35ccf)" style="fill: none; stroke: #1a1a1a; stroke-width: 2; stroke-linecap: square"/>
   </g>
   <g id="line2d_63">
    <path d="M 952.8 368.712 
L 952.8 390.888 
" clip-path="url(#p1d71c35ccf)" style="fill: none; stroke: #e91e63; stroke-width: 2; stroke-linecap: square"/>
   </g>
   <g id="line2d_64">
    <path d="M 871.488 390.888 
L 1034.112 390.888 
" clip-path="url(#p1d71c35ccf)" style="fill: none; stroke: #e91e63; stroke-width: 2; stroke-linecap: square"/>
   </g>
   <g id="line2d_65">
    <path d="M 871.488 390.888 
L 871.488 416.76 
" clip-path="url(#p1d71c35ccf)" style="fill: none; stroke: #e91e63; stroke-width: 2; stroke-linecap: square"/>
   </g>
   <g id="line2d_66">
    <path d="M 1034.112 390.888 
L 1034.112 416.76 
" clip-path="url(#p1d71c35ccf)" style="fill: none; stroke: #e91e63; stroke-width: 2; stroke-linecap: square"/>
   </g>
   <g id="line2d_67">
    <path d="M 861.5088 461.112 
L 861.5088 431.544 
" clip-path="url(#p1d71c35ccf)" style="fill: none; stroke: #333333; stroke-width: 0.5; stroke-linecap: square"/>
   </g>
   <g id="line2d_68">
    <path d="M 881.0976 461.112 
L 881.0976 431.544 
" clip-path="url(#p1d71c35ccf)" style="fill: none; stroke: #333333; stroke-width: 0.5; stroke-linecap: square"/>
   </g>
   <g id="line2d_69">
    <path d="M 841.92 446.328 
L 901.056 446.328 
" clip-path="url(#p1d71c35ccf)" style="fill: none; stroke: #333333; stroke-width: 0.5; stroke-linecap: square"/>
   </g>
   <g id="line2d_70">
    <path d="M 871.488 461.112 
L 871.488 483.288 
" clip-path="url(#p1d71c35ccf)" style="fill: none; stroke: #333333; stroke-width: 1.5; stroke-linecap: square"/>
   </g>
   <g id="line2d_71">
    <path d="M 853.008 483.288 
L 889.968 483.288 
" clip-path="url(#p1d71c35ccf)" style="fill: none; stroke: #333333; stroke-width: 1.5; stroke-linecap: square"/>
   </g>
   <g id="text_10">
    <!-- Single DUID -->
    <g transform="translate(919.278906 516.552) scale(0.1 -0.1)">
     <defs>
      <path id="DejaVuSans-Bold-53" d="M 3834 4519 
L 3834 3531 
Q 3450 3703 3084 3790 
Q 2719 3878 2394 3878 
Q 1963 3878 1756 3759 
Q 1550 3641 1550 3391 
Q 1550 3203 1689 3098 
Q 1828 2994 2194 2919 
L 2706 2816 
Q 3484 2659 3812 2340 
Q 4141 2022 4141 1434 
Q 4141 663 3683 286 
Q 3225 -91 2284 -91 
Q 1841 -91 1394 -6 
Q 947 78 500 244 
L 500 1259 
Q 947 1022 1364 901 
Q 1781 781 2169 781 
Q 2563 781 2772 912 
Q 2981 1044 2981 1288 
Q 2981 1506 2839 1625 
Q 2697 1744 2272 1838 
L 1806 1941 
Q 1106 2091 782 2419 
Q 459 2747 459 3303 
Q 459 4000 909 4375 
Q 1359 4750 2203 4750 
Q 2588 4750 2994 4692 
Q 3400 4634 3834 4519 
z
" transform="scale(0.015625)"/>
      <path id="DejaVuSans-Bold-67" d="M 2919 594 
Q 2688 288 2409 144 
Q 2131 0 1766 0 
Q 1125 0 706 504 
Q 288 1009 288 1791 
Q 288 2575 706 3076 
Q 1125 3578 1766 3578 
Q 2131 3578 2409 3434 
Q 2688 3291 2919 2981 
L 2919 3500 
L 4044 3500 
L 4044 353 
Q 4044 -491 3511 -936 
Q 2978 -1381 1966 -1381 
Q 1638 -1381 1331 -1331 
Q 1025 -1281 716 -1178 
L 716 -306 
Q 1009 -475 1290 -558 
Q 1572 -641 1856 -641 
Q 2406 -641 2662 -400 
Q 2919 -159 2919 353 
L 2919 594 
z
M 2181 2772 
Q 1834 2772 1640 2515 
Q 1447 2259 1447 1791 
Q 1447 1309 1634 1061 
Q 1822 813 2181 813 
Q 2531 813 2725 1069 
Q 2919 1325 2919 1791 
Q 2919 2259 2725 2515 
Q 2531 2772 2181 2772 
z
" transform="scale(0.015625)"/>
     </defs>
     <use xlink:href="#DejaVuSans-Bold-53"/>
     <use xlink:href="#DejaVuSans-Bold-69" transform="translate(72.021484 0)"/>
     <use xlink:href="#DejaVuSans-Bold-6e" transform="translate(106.298828 0)"/>
     <use xlink:href="#DejaVuSans-Bold-67" transform="translate(177.490234 0)"/>
     <use xlink:href="#DejaVuSans-Bold-6c" transform="translate(249.072266 0)"/>
     <use xlink:href="#DejaVuSans-Bold-65" transform="translate(283.349609 0)"/>
     <use xlink:href="#DejaVuSans-Bold-20" transform="translate(351.171875 0)"/>
     <use xlink:href="#DejaVuSans-Bold-44" transform="translate(385.986328 0)"/>
     <use xlink:href="#DejaVuSans-Bold-55" transform="translate(468.994141 0)"/>
     <use xlink:href="#DejaVuSans-Bold-49" transform="translate(550.195312 0)"/>
     <use xlink:href="#DejaVuSans-Bold-44" transform="translate(587.402344 0)"/>
    </g>
   </g>
   <g id="text_11">
    <!-- DC-coupled hybrid -->
    <g transform="translate(885.035469 124.56) scale(0.13 -0.13)">
     <use xlink:href="#DejaVuSans-Bold-44"/>
     <use xlink:href="#DejaVuSans-Bold-43" transform="translate(83.007812 0)"/>
     <use xlink:href="#DejaVuSans-Bold-2d" transform="translate(158.646484 0)"/>
     <use xlink:href="#DejaVuSans-Bold-63" transform="translate(200.150391 0)"/>
     <use xlink:href="#DejaVuSans-Bold-6f" transform="translate(259.427734 0)"/>
     <use xlink:href="#DejaVuSans-Bold-75" transform="translate(328.128906 0)"/>
     <use xlink:href="#DejaVuSans-Bold-70" transform="translate(399.320312 0)"/>
     <use xlink:href="#DejaVuSans-Bold-6c" transform="translate(470.902344 0)"/>
     <use xlink:href="#DejaVuSans-Bold-65" transform="translate(505.179688 0)"/>
     <use xlink:href="#DejaVuSans-Bold-64" transform="translate(573.001953 0)"/>
     <use xlink:href="#DejaVuSans-Bold-20" transform="translate(644.583984 0)"/>
     <use xlink:href="#DejaVuSans-Bold-68" transform="translate(679.398438 0)"/>
     <use xlink:href="#DejaVuSans-Bold-79" transform="translate(750.589844 0)"/>
     <use xlink:href="#DejaVuSans-Bold-62" transform="translate(815.775391 0)"/>
     <use xlink:href="#DejaVuSans-Bold-72" transform="translate(887.357422 0)"/>
     <use xlink:href="#DejaVuSans-Bold-69" transform="translate(936.673828 0)"/>
     <use xlink:href="#DejaVuSans-Bold-64" transform="translate(970.951172 0)"/>
    </g>
   </g>
  </g>
  <g id="text_12">
   <!-- Indicative diagrams of co-located battery and renewable generation -->
   <g transform="translate(283.048828 18.597656) scale(0.15 -0.15)">
    <defs>
     <path id="DejaVuSans-Bold-61" d="M 2106 1575 
Q 1756 1575 1579 1456 
Q 1403 1338 1403 1106 
Q 1403 894 1545 773 
Q 1688 653 1941 653 
Q 2256 653 2472 879 
Q 2688 1106 2688 1447 
L 2688 1575 
L 2106 1575 
z
M 3816 1997 
L 3816 0 
L 2688 0 
L 2688 519 
Q 2463 200 2181 54 
Q 1900 -91 1497 -91 
Q 953 -91 614 226 
Q 275 544 275 1050 
Q 275 1666 698 1953 
Q 1122 2241 2028 2241 
L 2688 2241 
L 2688 2328 
Q 2688 2594 2478 2717 
Q 2269 2841 1825 2841 
Q 1466 2841 1156 2769 
Q 847 2697 581 2553 
L 581 3406 
Q 941 3494 1303 3539 
Q 1666 3584 2028 3584 
Q 2975 3584 3395 3211 
Q 3816 2838 3816 1997 
z
" transform="scale(0.015625)"/>
     <path id="DejaVuSans-Bold-74" d="M 1759 4494 
L 1759 3500 
L 2913 3500 
L 2913 2700 
L 1759 2700 
L 1759 1216 
Q 1759 972 1856 886 
Q 1953 800 2241 800 
L 2816 800 
L 2816 0 
L 1856 0 
Q 1194 0 917 276 
Q 641 553 641 1216 
L 641 2700 
L 84 2700 
L 84 3500 
L 641 3500 
L 641 4494 
L 1759 4494 
z
" transform="scale(0.015625)"/>
     <path id="DejaVuSans-Bold-76" d="M 97 3500 
L 1216 3500 
L 2088 1081 
L 2956 3500 
L 4078 3500 
L 2700 0 
L 1472 0 
L 97 3500 
z
" transform="scale(0.015625)"/>
     <path id="DejaVuSans-Bold-6d" d="M 3781 2919 
Q 3994 3244 4286 3414 
Q 4578 3584 4928 3584 
Q 5531 3584 5847 3212 
Q 6163 2841 6163 2131 
L 6163 0 
L 5038 0 
L 5038 1825 
Q 5041 1866 5042 1909 
Q 5044 1953 5044 2034 
Q 5044 2406 4934 2573 
Q 4825 2741 4581 2741 
Q 4263 2741 4089 2478 
Q 3916 2216 3909 1719 
L 3909 0 
L 2784 0 
L 2784 1825 
Q 2784 2406 2684 2573 
Q 2584 2741 2328 2741 
Q 2006 2741 1831 2477 
Q 1656 2213 1656 1722 
L 1656 0 
L 531 0 
L 531 3500 
L 1656 3500 
L 1656 2988 
Q 1863 3284 2130 3434 
Q 2397 3584 2719 3584 
Q 3081 3584 3359 3409 
Q 3638 3234 3781 2919 
z
" transform="scale(0.015625)"/>
     <path id="DejaVuSans-Bold-73" d="M 3272 3391 
L 3272 2541 
Q 2913 2691 2578 2766 
Q 2244 2841 1947 2841 
Q 1628 2841 1473 2761 
Q 1319 2681 1319 2516 
Q 1319 2381 1436 2309 
Q 1553 2238 1856 2203 
L 2053 2175 
Q 2913 2066 3209 1816 
Q 3506 1566 3506 1031 
Q 3506 472 3093 190 
Q 2681 -91 1863 -91 
Q 1516 -91 1145 -36 
Q 775 19 384 128 
L 384 978 
Q 719 816 1070 734 
Q 1422 653 1784 653 
Q 2113 653 2278 743 
Q 2444 834 2444 1013 
Q 2444 1163 2330 1236 
Q 2216 1309 1875 1350 
L 1678 1375 
Q 931 1469 631 1722 
Q 331 1975 331 2491 
Q 331 3047 712 3315 
Q 1094 3584 1881 3584 
Q 2191 3584 2531 3537 
Q 2872 3491 3272 3391 
z
" transform="scale(0.015625)"/>
     <path id="DejaVuSans-Bold-66" d="M 2841 4863 
L 2841 4128 
L 2222 4128 
Q 1984 4128 1890 4042 
Q 1797 3956 1797 3744 
L 1797 3500 
L 2753 3500 
L 2753 2700 
L 1797 2700 
L 1797 0 
L 678 0 
L 678 2700 
L 122 2700 
L 122 3500 
L 678 3500 
L 678 3744 
Q 678 4316 997 4589 
Q 1316 4863 1984 4863 
L 2841 4863 
z
" transform="scale(0.015625)"/>
     <path id="DejaVuSans-Bold-77" d="M 225 3500 
L 1313 3500 
L 1900 1088 
L 2491 3500 
L 3425 3500 
L 4013 1113 
L 4603 3500 
L 5691 3500 
L 4769 0 
L 3547 0 
L 2956 2406 
L 2369 0 
L 1147 0 
L 225 3500 
z
" transform="scale(0.015625)"/>
    </defs>
    <use xlink:href="#DejaVuSans-Bold-49"/>
    <use xlink:href="#DejaVuSans-Bold-6e" transform="translate(37.207031 0)"/>
    <use xlink:href="#DejaVuSans-Bold-64" transform="translate(108.398438 0)"/>
    <use xlink:href="#DejaVuSans-Bold-69" transform="translate(179.980469 0)"/>
    <use xlink:href="#DejaVuSans-Bold-63" transform="translate(214.257812 0)"/>
    <use xlink:href="#DejaVuSans-Bold-61" transform="translate(273.535156 0)"/>
    <use xlink:href="#DejaVuSans-Bold-74" transform="translate(341.015625 0)"/>
    <use xlink:href="#DejaVuSans-Bold-69" transform="translate(388.818359 0)"/>
    <use xlink:href="#DejaVuSans-Bold-76" transform="translate(423.095703 0)"/>
    <use xlink:href="#DejaVuSans-Bold-65" transform="translate(488.28125 0)"/>
    <use xlink:href="#DejaVuSans-Bold-20" transform="translate(556.103516 0)"/>
    <use xlink:href="#DejaVuSans-Bold-64" transform="translate(590.917969 0)"/>
    <use xlink:href="#DejaVuSans-Bold-69" transform="translate(662.5 0)"/>
    <use xlink:href="#DejaVuSans-Bold-61" transform="translate(696.777344 0)"/>
    <use xlink:href="#DejaVuSans-Bold-67" transform="translate(764.257812 0)"/>
    <use xlink:href="#DejaVuSans-Bold-72" transform="translate(835.839844 0)"/>
    <use xlink:href="#DejaVuSans-Bold-61" transform="translate(885.15625 0)"/>
    <use xlink:href="#DejaVuSans-Bold-6d" transform="translate(952.636719 0)"/>
    <use xlink:href="#DejaVuSans-Bold-73" transform="translate(1056.835938 0)"/>
    <use xlink:href="#DejaVuSans-Bold-20" transform="translate(1116.357422 0)"/>
    <use xlink:href="#DejaVuSans-Bold-6f" transform="translate(1151.171875 0)"/>
    <use xlink:href="#DejaVuSans-Bold-66" transform="translate(1219.873047 0)"/>
    <use xlink:href="#DejaVuSans-Bold-20" transform="translate(1263.378906 0)"/>
    <use xlink:href="#DejaVuSans-Bold-63" transform="translate(1298.193359 0)"/>
    <use xlink:href="#DejaVuSans-Bold-6f" transform="translate(1357.470703 0)"/>
    <use xlink:href="#DejaVuSans-Bold-2d" transform="translate(1426.171875 0)"/>
    <use xlink:href="#DejaVuSans-Bold-6c" transform="translate(1467.675781 0)"/>
    <use xlink:href="#DejaVuSans-Bold-6f" transform="translate(1501.953125 0)"/>
    <use xlink:href="#DejaVuSans-Bold-63" transform="translate(1570.654297 0)"/>
    <use xlink:href="#DejaVuSans-Bold-61" transform="translate(1629.931641 0)"/>
    <use xlink:href="#DejaVuSans-Bold-74" transform="translate(1697.412109 0)"/>
    <use xlink:href="#DejaVuSans-Bold-65" transform="translate(1745.214844 0)"/>
    <use xlink:href="#DejaVuSans-Bold-64" transform="translate(1813.037109 0)"/>
    <use xlink:href="#DejaVuSans-Bold-20" transform="translate(1884.619141 0)"/>
    <use xlink:href="#DejaVuSans-Bold-62" transform="translate(1919.433594 0)"/>
    <use xlink:href="#DejaVuSans-Bold-61" transform="translate(1991.015625 0)"/>
    <use xlink:href="#DejaVuSans-Bold-74" transform="translate(2058.496094 0)"/>
    <use xlink:href="#DejaVuSans-Bold-74" transform="translate(2106.298828 0)"/>
    <use xlink:href="#DejaVuSans-Bold-65" transform="translate(2154.101562 0)"/>
    <use xlink:href="#DejaVuSans-Bold-72" transform="translate(2221.923828 0)"/>
    <use xlink:href="#DejaVuSans-Bold-79" transform="translate(2271.240234 0)"/>
    <use xlink:href="#DejaVuSans-Bold-20" transform="translate(2336.425781 0)"/>
    <use xlink:href="#DejaVuSans-Bold-61" transform="translate(2371.240234 0)"/>
    <use xlink:href="#DejaVuSans-Bold-6e" transform="translate(2438.720703 0)"/>
    <use xlink:href="#DejaVuSans-Bold-64" transform="translate(2509.912109 0)"/>
    <use xlink:href="#DejaVuSans-Bold-20" transform="translate(2581.494141 0)"/>
    <use xlink:href="#DejaVuSans-Bold-72" transform="translate(2616.308594 0)"/>
    <use xlink:href="#DejaVuSans-Bold-65" transform="translate(2665.625 0)"/>
    <use xlink:href="#DejaVuSans-Bold-6e" transform="translate(2733.447266 0)"/>
    <use xlink:href="#DejaVuSans-Bold-65" transform="translate(2804.638672 0)"/>
    <use xlink:href="#DejaVuSans-Bold-77" transform="translate(2872.460938 0)"/>
    <use xlink:href="#DejaVuSans-Bold-61" transform="translate(2964.84375 0)"/>
    <use xlink:href="#DejaVuSans-Bold-62" transform="translate(3032.324219 0)"/>
    <use xlink:href="#DejaVuSans-Bold-6c" transform="translate(3103.90625 0)"/>
    <use xlink:href="#DejaVuSans-Bold-65" transform="translate(3138.183594 0)"/>
    <use xlink:href="#DejaVuSans-Bold-20" transform="translate(3206.005859 0)"/>
    <use xlink:href="#DejaVuSans-Bold-67" transform="translate(3240.820312 0)"/>
    <use xlink:href="#DejaVuSans-Bold-65" transform="translate(3312.402344 0)"/>
    <use xlink:href="#DejaVuSans-Bold-6e" transform="translate(3380.224609 0)"/>
    <use xlink:href="#DejaVuSans-Bold-65" transform="translate(3451.416016 0)"/>
    <use xlink:href="#DejaVuSans-Bold-72" transform="translate(3519.238281 0)"/>
    <use xlink:href="#DejaVuSans-Bold-61" transform="translate(3568.554688 0)"/>
    <use xlink:href="#DejaVuSans-Bold-74" transform="translate(3636.035156 0)"/>
    <use xlink:href="#DejaVuSans-Bold-69" transform="translate(3683.837891 0)"/>
    <use xlink:href="#DejaVuSans-Bold-6f" transform="translate(3718.115234 0)"/>
    <use xlink:href="#DejaVuSans-Bold-6e" transform="translate(3786.816406 0)"/>
   </g>
  </g>
  <g id="legend_1">
   <g id="patch_29">
    <path d="M 975.46875 611.32 
L 1083.8 611.32 
Q 1085.8 611.32 1085.8 609.32 
L 1085.8 595.641875 
Q 1085.8 593.641875 1083.8 593.641875 
L 975.46875 593.641875 
Q 973.46875 593.641875 973.46875 595.641875 
L 973.46875 609.32 
Q 973.46875 611.32 975.46875 611.32 
z
" style="fill: #ffffff; opacity: 0.8; stroke: #cccccc; stroke-linejoin: miter"/>
   </g>
   <g id="line2d_72">
    <path d="M 977.46875 601.740312 
L 987.46875 601.740312 
L 997.46875 601.740312 
" style="fill: none; stroke: #1a1a1a; stroke-width: 2; stroke-linecap: square"/>
   </g>
   <g id="text_13">
    <!-- AC -->
    <g transform="translate(1005.46875 605.240312) scale(0.1 -0.1)">
     <defs>
      <path id="DejaVuSans-41" d="M 2188 4044 
L 1331 1722 
L 3047 1722 
L 2188 4044 
z
M 1831 4666 
L 2547 4666 
L 4325 0 
L 3669 0 
L 3244 1197 
L 1141 1197 
L 716 0 
L 50 0 
L 1831 4666 
z
" transform="scale(0.015625)"/>
      <path id="DejaVuSans-43" d="M 4122 4306 
L 4122 3641 
Q 3803 3938 3442 4084 
Q 3081 4231 2675 4231 
Q 1875 4231 1450 3742 
Q 1025 3253 1025 2328 
Q 1025 1406 1450 917 
Q 1875 428 2675 428 
Q 3081 428 3442 575 
Q 3803 722 4122 1019 
L 4122 359 
Q 3791 134 3420 21 
Q 3050 -91 2638 -91 
Q 1578 -91 968 557 
Q 359 1206 359 2328 
Q 359 3453 968 4101 
Q 1578 4750 2638 4750 
Q 3056 4750 3426 4639 
Q 3797 4528 4122 4306 
z
" transform="scale(0.015625)"/>
     </defs>
     <use xlink:href="#DejaVuSans-41"/>
     <use xlink:href="#DejaVuSans-43" transform="translate(66.658203 0)"/>
    </g>
   </g>
   <g id="line2d_73">
    <path d="M 1039.117188 601.740312 
L 1049.117188 601.740312 
L 1059.117188 601.740312 
" style="fill: none; stroke: #e91e63; stroke-width: 2; stroke-linecap: square"/>
   </g>
   <g id="text_14">
    <!-- DC -->
    <g transform="translate(1067.117188 605.240312) scale(0.1 -0.1)">
     <defs>
      <path id="DejaVuSans-44" d="M 1259 4147 
L 1259 519 
L 2022 519 
Q 2988 519 3436 956 
Q 3884 1394 3884 2338 
Q 3884 3275 3436 3711 
Q 2988 4147 2022 4147 
L 1259 4147 
z
M 628 4666 
L 1925 4666 
Q 3281 4666 3915 4102 
Q 4550 3538 4550 2338 
Q 4550 1131 3912 565 
Q 3275 0 1925 0 
L 628 0 
L 628 4666 
z
" transform="scale(0.015625)"/>
     </defs>
     <use xlink:href="#DejaVuSans-44"/>
     <use xlink:href="#DejaVuSans-43" transform="translate(77.001953 0)"/>
    </g>
   </g>
  </g>
 </g>
 <defs>
  <clipPath id="p43ffbe97ff">
   <rect x="7.2" y="139.56" width="369.6" height="369.6"/>
  </clipPath>
  <clipPath id="pd84ebc76dc">
   <rect x="387.6" y="139.56" width="369.6" height="369.6"/>
  </clipPath>
  <clipPath id="p1d71c35ccf">
   <rect x="768" y="139.56" width="369.6" height="369.6"/>
  </clipPath>
 </defs>
</svg>
