<?xml version="1.0" encoding="UTF-8" standalone="no"?>
<!DOCTYPE svg PUBLIC "-//W3C//DTD SVG 1.1//EN"
 "http://www.w3.org/Graphics/SVG/1.1/DTD/svg11.dtd">
<!-- Generated by graphviz version 2.43.0 (0)
 -->
<!-- Title: bess_colocation Pages: 1 -->
<svg width="817pt" height="563pt"
 viewBox="0.00 0.00 817.20 563.00" xmlns="http://www.w3.org/2000/svg" xmlns:xlink="http://www.w3.org/1999/xlink">
<g id="graph0" class="graph" transform="scale(1 1) rotate(0) translate(36 527)">
<title>bess_colocation</title>
<polygon fill="white" stroke="transparent" points="-36,36 -36,-527 781.2,-527 781.2,36 -36,36"/>
<text text-anchor="middle" x="372.6" y="-475.8" font-family="Arial" font-size="14.00">Indicative diagrams of co&#45;located battery and renewable generation</text>
<!-- non_hybrid_grid -->
<g id="node1" class="node">
<title>non_hybrid_grid</title>
<text text-anchor="middle" x="84.6" y="-381" font-family="Arial" font-size="10.00">⚡</text>
<text text-anchor="middle" x="84.6" y="-370" font-family="Arial" font-size="10.00">Grid</text>
</g>
<!-- non_hybrid_inv1 -->
<g id="node2" class="node">
<title>non_hybrid_inv1</title>
<polygon fill="#ffeb3b" stroke="black" points="54,-252 0,-252 0,-216 54,-216 54,-252"/>
<text text-anchor="middle" x="27" y="-231.5" font-family="Arial" font-size="10.00">▭</text>
</g>
<!-- non_hybrid_grid&#45;&gt;non_hybrid_inv1 -->
<g id="edge1" class="edge">
<title>non_hybrid_grid&#45;&gt;non_hybrid_inv1</title>
<path fill="none" stroke="black" stroke-width="2" d="M77.3,-359.76C67.39,-334.98 49.59,-290.47 38.04,-261.59"/>
<polygon fill="black" stroke="black" stroke-width="2" points="41.2,-260.07 34.24,-252.09 34.7,-262.67 41.2,-260.07"/>
</g>
<!-- non_hybrid_inv2 -->
<g id="node3" class="node">
<title>non_hybrid_inv2</title>
<polygon fill="#ffeb3b" stroke="black" points="169.2,-252 115.2,-252 115.2,-216 169.2,-216 169.2,-252"/>
<text text-anchor="middle" x="142.2" y="-231.5" font-family="Arial" font-size="10.00">▭</text>
</g>
<!-- non_hybrid_grid&#45;&gt;non_hybrid_inv2 -->
<g id="edge2" class="edge">
<title>non_hybrid_grid&#45;&gt;non_hybrid_inv2</title>
<path fill="none" stroke="black" stroke-width="2" d="M91.9,-359.76C101.81,-334.98 119.61,-290.47 131.16,-261.59"/>
<polygon fill="black" stroke="black" stroke-width="2" points="134.5,-262.67 134.96,-252.09 128,-260.07 134.5,-262.67"/>
</g>
<!-- non_hybrid_solar -->
<g id="node4" class="node">
<title>non_hybrid_solar</title>
<text text-anchor="middle" x="27" y="-93" font-family="Arial" font-size="10.00">☀️</text>
<text text-anchor="middle" x="27" y="-82" font-family="Arial" font-size="10.00">Solar</text>
</g>
<!-- non_hybrid_inv1&#45;&gt;non_hybrid_solar -->
<g id="edge3" class="edge">
<title>non_hybrid_inv1&#45;&gt;non_hybrid_solar</title>
<path fill="none" stroke="#e91e63" stroke-width="2" d="M27,-215.76C27,-191.2 27,-147.25 27,-118.35"/>
<polygon fill="#e91e63" stroke="#e91e63" stroke-width="2" points="30.5,-118.09 27,-108.09 23.5,-118.09 30.5,-118.09"/>
</g>
<!-- non_hybrid_batt -->
<g id="node5" class="node">
<title>non_hybrid_batt</title>
<text text-anchor="middle" x="142.2" y="-93" font-family="Arial" font-size="10.00">🔋</text>
<text text-anchor="middle" x="142.2" y="-82" font-family="Arial" font-size="10.00">Battery</text>
</g>
<!-- non_hybrid_inv2&#45;&gt;non_hybrid_batt -->
<g id="edge4" class="edge">
<title>non_hybrid_inv2&#45;&gt;non_hybrid_batt</title>
<path fill="none" stroke="#e91e63" stroke-width="2" d="M142.2,-215.76C142.2,-191.2 142.2,-147.25 142.2,-118.35"/>
<polygon fill="#e91e63" stroke="#e91e63" stroke-width="2" points="145.7,-118.09 142.2,-108.09 138.7,-118.09 145.7,-118.09"/>
</g>
<!-- non_hybrid_title -->
<g id="node6" class="node">
<title>non_hybrid_title</title>
<text text-anchor="middle" x="84.6" y="-447.2" font-family="Arial" font-size="11.00">Non&#45;hybrid</text>
</g>
<!-- non_hybrid_duid1 -->
<g id="node7" class="node">
<title>non_hybrid_duid1</title>
<text text-anchor="middle" x="27" y="-15.8" font-family="Arial" font-size="9.00">DUID 1</text>
</g>
<!-- non_hybrid_duid2 -->
<g id="node8" class="node">
<title>non_hybrid_duid2</title>
<text text-anchor="middle" x="142.2" y="-15.8" font-family="Arial" font-size="9.00">DUID 2</text>
</g>
<!-- ac_coupled_grid -->
<g id="node9" class="node">
<title>ac_coupled_grid</title>
<text text-anchor="middle" x="372.6" y="-381" font-family="Arial" font-size="10.00">⚡</text>
<text text-anchor="middle" x="372.6" y="-370" font-family="Arial" font-size="10.00">Grid</text>
</g>
<!-- ac_coupled_inv1 -->
<g id="node10" class="node">
<title>ac_coupled_inv1</title>
<polygon fill="#ffeb3b" stroke="black" points="342,-252 288,-252 288,-216 342,-216 342,-252"/>
<text text-anchor="middle" x="315" y="-231.5" font-family="Arial" font-size="10.00">▭</text>
</g>
<!-- ac_coupled_grid&#45;&gt;ac_coupled_inv1 -->
<g id="edge5" class="edge">
<title>ac_coupled_grid&#45;&gt;ac_coupled_inv1</title>
<path fill="none" stroke="black" stroke-width="2" d="M365.3,-359.76C355.39,-334.98 337.59,-290.47 326.04,-261.59"/>
<polygon fill="black" stroke="black" stroke-width="2" points="329.2,-260.07 322.24,-252.09 322.7,-262.67 329.2,-260.07"/>
</g>
<!-- ac_coupled_inv2 -->
<g id="node11" class="node">
<title>ac_coupled_inv2</title>
<polygon fill="#ffeb3b" stroke="black" points="457.2,-252 403.2,-252 403.2,-216 457.2,-216 457.2,-252"/>
<text text-anchor="middle" x="430.2" y="-231.5" font-family="Arial" font-size="10.00">▭</text>
</g>
<!-- ac_coupled_grid&#45;&gt;ac_coupled_inv2 -->
<g id="edge6" class="edge">
<title>ac_coupled_grid&#45;&gt;ac_coupled_inv2</title>
<path fill="none" stroke="black" stroke-width="2" d="M379.9,-359.76C389.81,-334.98 407.61,-290.47 419.16,-261.59"/>
<polygon fill="black" stroke="black" stroke-width="2" points="422.5,-262.67 422.96,-252.09 416,-260.07 422.5,-262.67"/>
</g>
<!-- ac_coupled_solar -->
<g id="node12" class="node">
<title>ac_coupled_solar</title>
<text text-anchor="middle" x="315" y="-93" font-family="Arial" font-size="10.00">☀️</text>
<text text-anchor="middle" x="315" y="-82" font-family="Arial" font-size="10.00">Solar</text>
</g>
<!-- ac_coupled_inv1&#45;&gt;ac_coupled_solar -->
<g id="edge7" class="edge">
<title>ac_coupled_inv1&#45;&gt;ac_coupled_solar</title>
<path fill="none" stroke="#e91e63" stroke-width="2" d="M315,-215.76C315,-191.2 315,-147.25 315,-118.35"/>
<polygon fill="#e91e63" stroke="#e91e63" stroke-width="2" points="318.5,-118.09 315,-108.09 311.5,-118.09 318.5,-118.09"/>
</g>
<!-- ac_coupled_batt -->
<g id="node13" class="node">
<title>ac_coupled_batt</title>
<text text-anchor="middle" x="430.2" y="-93" font-family="Arial" font-size="10.00">🔋</text>
<text text-anchor="middle" x="430.2" y="-82" font-family="Arial" font-size="10.00">Battery</text>
</g>
<!-- ac_coupled_inv2&#45;&gt;ac_coupled_batt -->
<g id="edge8" class="edge">
<title>ac_coupled_inv2&#45;&gt;ac_coupled_batt</title>
<path fill="none" stroke="#e91e63" stroke-width="2" d="M430.2,-215.76C430.2,-191.2 430.2,-147.25 430.2,-118.35"/>
<polygon fill="#e91e63" stroke="#e91e63" stroke-width="2" points="433.7,-118.09 430.2,-108.09 426.7,-118.09 433.7,-118.09"/>
</g>
<!-- ac_coupled_title -->
<g id="node14" class="node">
<title>ac_coupled_title</title>
<text text-anchor="middle" x="372.6" y="-447.2" font-family="Arial" font-size="11.00">AC&#45;coupled hybrid</text>
</g>
<!-- ac_coupled_duid1 -->
<g id="node15" class="node">
<title>ac_coupled_duid1</title>
<text text-anchor="middle" x="315" y="-15.8" font-family="Arial" font-size="9.00">DUID 1</text>
</g>
<!-- ac_coupled_duid2 -->
<g id="node16" class="node">
<title>ac_coupled_duid2</title>
<text text-anchor="middle" x="430.2" y="-15.8" font-family="Arial" font-size="9.00">DUID 2</text>
</g>
<!-- dc_coupled_grid -->
<g id="node17" class="node">
<title>dc_coupled_grid</title>
<text text-anchor="middle" x="660.6" y="-381" font-family="Arial" font-size="10.00">⚡</text>
<text text-anchor="middle" x="660.6" y="-370" font-family="Arial" font-size="10.00">Grid</text>
</g>
<!-- dc_coupled_inv -->
<g id="node18" class="node">
<title>dc_coupled_inv</title>
<polygon fill="#ffeb3b" stroke="black" points="687.6,-252 633.6,-252 633.6,-216 687.6,-216 687.6,-252"/>
<text text-anchor="middle" x="660.6" y="-237" font-family="Arial" font-size="10.00">▭</text>
<text text-anchor="middle" x="660.6" y="-226" font-family="Arial" font-size="10.00">Inverter</text>
</g>
<!-- dc_coupled_grid&#45;&gt;dc_coupled_inv -->
<g id="edge9" class="edge">
<title>dc_coupled_grid&#45;&gt;dc_coupled_inv</title>
<path fill="none" stroke="black" stroke-width="2" d="M660.6,-359.76C660.6,-335.2 660.6,-291.25 660.6,-262.35"/>
<polygon fill="black" stroke="black" stroke-width="2" points="664.1,-262.09 660.6,-252.09 657.1,-262.09 664.1,-262.09"/>
</g>
<!-- dc_coupled_solar -->
<g id="node19" class="node">
<title>dc_coupled_solar</title>
<text text-anchor="middle" x="603" y="-93" font-family="Arial" font-size="10.00">☀️</text>
<text text-anchor="middle" x="603" y="-82" font-family="Arial" font-size="10.00">Solar</text>
</g>
<!-- dc_coupled_inv&#45;&gt;dc_coupled_solar -->
<g id="edge10" class="edge">
<title>dc_coupled_inv&#45;&gt;dc_coupled_solar</title>
<path fill="none" stroke="#e91e63" stroke-width="2" d="M653.3,-215.76C643.39,-190.98 625.59,-146.47 614.04,-117.59"/>
<polygon fill="#e91e63" stroke="#e91e63" stroke-width="2" points="617.2,-116.07 610.24,-108.09 610.7,-118.67 617.2,-116.07"/>
</g>
<!-- dc_coupled_batt -->
<g id="node20" class="node">
<title>dc_coupled_batt</title>
<text text-anchor="middle" x="718.2" y="-93" font-family="Arial" font-size="10.00">🔋</text>
<text text-anchor="middle" x="718.2" y="-82" font-family="Arial" font-size="10.00">Battery</text>
</g>
<!-- dc_coupled_inv&#45;&gt;dc_coupled_batt -->
<g id="edge11" class="edge">
<title>dc_coupled_inv&#45;&gt;dc_coupled_batt</title>
<path fill="none" stroke="#e91e63" stroke-width="2" d="M667.9,-215.76C677.81,-190.98 695.61,-146.47 707.16,-117.59"/>
<polygon fill="#e91e63" stroke="#e91e63" stroke-width="2" points="710.5,-118.67 710.96,-108.09 704,-116.07 710.5,-118.67"/>
</g>
<!-- dc_coupled_title -->
<g id="node21" class="node">
<title>dc_coupled_title</title>
<text text-anchor="middle" x="660.6" y="-447.2" font-family="Arial" font-size="11.00">DC&#45;coupled hybrid</text>
</g>
<!-- dc_coupled_duid -->
<g id="node22" class="node">
<title>dc_coupled_duid</title>
<text text-anchor="middle" x="660.6" y="-15.8" font-family="Arial" font-size="9.00">Single DUID</text>
</g>
</g>
</svg>
